<?xml version="1.0" encoding="utf-8"?>
<!-- Generator: Adobe Illustrator 23.0.0, SVG Export Plug-In . SVG Version: 6.00 Build 0)  -->
<svg version="1.1" id="Layer_1" xmlns="http://www.w3.org/2000/svg" xmlns:xlink="http://www.w3.org/1999/xlink" x="0px" y="0px"
	 viewBox="0 0 2395.6 722.7" style="enable-background:new 0 0 2395.6 722.7;" xml:space="preserve">
<style type="text/css">
	.st0{stroke:#000000;stroke-width:10;stroke-miterlimit:10;}
</style>
<g transform="translate(0.000000,1000.000000) scale(0.100000,-0.100000)">
	<path class="st0" d="M1833.3,9837.3c-25-7-65-13-90-14c-25,0-56-7-70-15s-35-14-47-15c-12,0-34-6-50-14c-15-8-48-22-73-31
		c-25-10-57-23-72-31c-14-8-33-14-42-14s-16-4-16-9s-10-13-22-16c-33-9-90-38-106-52c-7-7-18-13-23-13c-9,0-109-59-119-70
		c-3-3-25-18-50-34c-57-37-338-318-376-377c-16-24-39-55-51-69c-13-14-23-28-23-32s-12-24-26-45s-30-47-35-58c-9-20-16-32-37-70
		c-7-11-15-27-18-35s-10-22-15-30c-10-16-11-20-36-85c-8-22-21-53-29-68c-8-16-14-36-14-46c0-9-7-26-15-37c-8-10-15-28-15-40
		c0-11-7-29-15-40c-8-10-15-31-15-45s-7-34-15-45c-8-10-15-33-15-50c0-16-7-39-15-50c-8-10-15-35-15-54s-7-46-15-60s-14-44-15-68
		c0-23-7-59-15-79c-8-19-15-65-15-102c0-36-7-98-15-136c-19-90-19-257,0-310c8-22,15-62,15-90c0-27,7-61,15-75c8-14,15-47,15-75
		c0-27,7-61,15-75s14-39,15-56c0-17,7-37,15-44s15-25,15-40s7-33,15-40s15-23,15-35s7-28,15-35s15-20,15-30s7-23,15-30s15-20,15-30
		s7-23,15-30s15-20,15-30s7-23,15-30s15-21,15-30c0-10,4-20,8-22c5-1,26-39,47-83c52-106,90-155,120-155c35,0,48,31,35,80
		c-6,22-15,40-20,40c-6,0-10,9-10,19c0,11-4,22-9,25c-8,5-32,51-55,106c-3,8-18,35-32,60c-47,80-114,218-114,233c0,8-7,20-15,27
		s-15,27-15,44s-7,40-15,50c-8,11-15,34-15,50c0,17-7,44-15,60c-8,15-15,48-15,72c0,25-7,61-15,81c-22,52-22,497,0,550
		c8,19,15,56,15,82c0,25,7,59,15,75c8,15,15,45,15,65c1,20,7,47,15,61s15,39,15,55c0,17,7,39,15,49c8,11,15,31,15,45s7,35,15,45
		c8,11,15,28,15,38c0,17,18,65,46,121c8,16,14,35,14,42s8,28,17,47c9,18,22,45,30,60c7,14,13,33,13,41s7,20,15,27s15,21,15,31
		c0,11,4,19,9,19s13,9,16,20c13,42,155,241,221,311c208,221,281,278,514,400c8,4,47,22,85,39c39,17,83,38,98,46c16,8,33,14,39,14
		c5,0,24,6,41,13c110,46,134,50,412,54c149,2,289,9,313,15c40,10,69,38,58,57c-3,4-59,11-125,15s-135,11-153,17
		C2085.3,9857.3,1887.3,9853.3,1833.3,9837.3z"/>
	<path class="st0" d="M3273.3,9676.3c-25-2-59-10-77-18c-17-8-38-15-46-15s-20-7-27-15s-18-15-25-15c-41,0-215-151-215-186
		c0-8-4-14-10-14c-5,0-13-12-16-27c-4-16-13-37-20-48c-8-11-14-27-14-36s-7-30-15-45c-8-16-15-40-15-54s-7-43-15-65s-14-62-15-88
		c0-27-5-57-10-67c-6-11-13-47-17-81c-4-37-16-80-31-107c-28-50-93-102-128-102c-13,0-25-4-28-9c-4-5-28-12-56-16c-54-7-70-28-50-65
		c12-22,49-26,109-10c20,5,53,12,73,15c27,4,55,21,97,61c69,64,96,115,106,199c4,33,10,65,15,70c4,6,10,45,12,88c3,43,10,83,17,90
		c6,6,11,27,11,47c0,19,7,48,15,64c8,15,15,36,15,45c0,10,7,26,15,37c8,10,15,27,15,36c0,24,116,140,176,175c28,17,65,34,82,38
		c18,3,34,11,37,16c8,11,339,12,363,1c69-33,109-59,125-79c12-15,29-23,48-23c24,0,29,4,29,25c0,39-55,114-84,115c-5,0-17,6-25,13
		C3648.3,9663.3,3427.3,9690.3,3273.3,9676.3z"/>
	<path class="st0" d="M4369.3,9544.3c-3-4-28-11-55-14s-58-10-68-16c-10-5-26-12-35-15c-13-4-18-16-18-46c0-44,18-52,54-25
		c11,8,34,15,52,15s35,4,39,9c3,5,34,13,69,16c49,6,72,3,102-10c97-42,122-60,155-109c67-101,81-149,89-309c4-84,11-142,18-149
		s12-24,12-39c0-32,86-116,129-125c14-3,33-9,41-13c54-29,130-18,130,17c0,24-30,52-56,52c-10,0-32,7-48,15c-15,8-33,15-38,15
		c-21,0-63,43-75,78c-8,20-16,93-19,162c-4,75-11,138-20,157c-8,17-14,38-14,45c0,8-11,35-25,59s-28,51-32,59
		c-29,64-128,143-197,156c-20,3-39,10-42,15C4510.3,9556.3,4376.3,9556.3,4369.3,9544.3z"/>
	<path class="st0" d="M3642.3,8479.3c-14-7-37-16-52-20c-15-3-27-11-27-16c0-6-8-10-18-10c-24,0-185-160-206-205c-9-19-21-37-26-40
		c-6-3-10-16-10-29c0-12-7-31-15-42c-8-10-15-39-15-63s-7-70-15-102c-14-53-14-66,0-125c8-36,15-105,15-154s7-115,15-147
		c15-58,12-138-6-149c-5-3-9-22-9-43c0-20-7-46-15-57c-8-10-15-29-15-40c0-12-7-27-15-34s-15-18-15-24c0-16-72-86-88-86
		c-7,0-23-6-35-14c-29-18-135-27-140-11c-3,6,1,19,9,30c19,26,19,191-1,225c-8,14-14,41-15,61c0,20-7,50-15,65c-8,16-15,43-15,59
		c0,17-5,36-11,42c-10,10-31,162-30,208c2,63,19,167,29,177c6,6,12,24,12,39s7,32,15,39s15,20,15,30s7,23,15,30s15,20,15,30
		s7,23,15,30s15,20,15,30s7,23,16,30c17,15,16,81-3,87c-16,6-53-37-83-94c-14-27-31-52-37-56c-7-4-13-19-13-31c0-13-7-26-15-30
		c-8-3-15-14-15-25c0-10-7-32-15-47c-8-16-15-36-15-45s-7-30-16-48c-13-26-15-60-12-181c2-102,7-153,16-162c6-6,12-28,12-47
		c0-20,7-49,15-65c8-15,15-44,15-63s7-47,15-64c11-21,15-53,13-112c-3-73-5-82-23-86c-27-5-78-59-104-110c-16-30-27-41-45-41
		c-13,0-29-7-36-15c-10-12-38-15-129-15c-131,0-131,0-181,83c-16,28-28,37-44,35c-18-3-21-11-24-55c-3-50-2-52,48-102l51-51h145
		c104,0,154,4,172,14c15,7,47,24,72,36c25,13,47,27,50,30c19,26,75,40,163,40c66,0,99,4,113,15c10,8,29,15,40,15c12,0,27,7,34,15
		s18,15,25,15c40,0,155,207,155,278c0,14,8,46,17,70c14,38,15,52,4,105c-7,34-16,112-20,172c-4,61-13,123-19,138
		c-17,40-15,176,3,207c8,14,14,40,15,57c0,38,43,134,71,159c10,9,19,22,19,29c0,17,53,67,104,100c25,16,46,32,46,36s14,10,31,14
		s42,13,57,21c40,21,52,17,59-16l6-30h103c84,0,111-4,142-20c41-22,102-84,102-105c0-7,7-18,15-25s15-25,15-39c0-15,7-36,15-47
		c8-10,15-35,15-54s7-46,15-60c11-20,14-78,15-281c0-202,3-266,15-299c8-23,15-62,15-85c0-26,6-48,15-55c8-7,15-21,15-32
		c0-10,7-30,16-43s13-29,9-35c-3-6-44-10-94-10c-56,0-102-6-124-15c-20-8-56-15-79-15c-24-1-54-7-68-15s-41-15-60-15s-46-7-60-15
		s-36-14-48-15c-13,0-36-6-50-14c-36-18-91-37-124-43c-15-3-33-11-39-19s-24-14-39-14s-33-7-40-15s-20-15-29-15c-16,0-42-12-231-105
		c-105-52-160-89-160-109c0-7,9-21,20-31c21-19,36-16,90,16c8,5,22,12,30,15s22,10,30,15s22,12,30,15s29,11,45,19c17,7,48,21,70,30
		c64,26,108,46,138,61c16,8,39,14,52,14c12,0,28,7,35,15s25,15,40,15s33,7,40,15s25,15,39,15c15,0,36,7,47,15c10,8,33,15,50,15
		c16,0,39,7,50,15c10,8,36,15,57,15s54,7,74,15c19,8,56,15,82,15c25,0,64,7,86,15c53,19,162,19,199,0c15-8,33-15,38-15
		c12,0,147-101,172-129c11-12,24-21,31-21s43-20,81-45c37-25,71-45,75-45s36-19,71-43c67-46,253-139,321-161c16-5,17-44,17-628
		c0-518-3-632-15-678c-8-30-15-92-15-136c0-47-6-100-15-124c-8-23-15-75-15-114c-1-43-6-81-15-96c-8-14-15-43-15-65s-7-51-15-65
		s-14-39-15-56c0-16-7-39-15-50c-8-10-15-28-15-40c0-11-7-29-15-40c-8-10-15-30-15-44s-7-34-15-44c-8-11-15-30-15-42s-7-27-15-34
		s-15-20-15-30s-7-23-15-30s-15-20-15-30s-7-23-15-30s-15-18-15-24s-12-27-28-46c-15-19-36-52-47-73c-11-20-23-37-27-37
		c-3,0-10-10-14-22c-3-13-12-30-19-38c-8-8-20-27-27-41c-8-15-44-60-80-100c-36-41-78-88-92-106c-126-152-459-463-494-463
		c-5,0-15-7-22-15s-20-15-30-15s-23-7-30-15s-20-15-30-15s-23-7-30-15s-23-15-35-15s-28-7-35-15s-22-15-34-15c-11,0-30-7-40-15
		c-11-8-29-15-40-15c-12,0-30-7-40-15c-11-8-34-15-51-15s-36-5-43-12c-40-40-515-39-589,1c-12,6-41,11-65,11s-53,7-64,15
		c-10,8-33,15-50,15s-37,7-44,15s-21,15-32,15s-32,6-46,14c-15,7-47,24-72,36c-25,13-59,33-77,46c-17,13-36,24-41,24s-28,14-50,30
		c-23,17-44,30-46,30c-3,0-33,19-68,43c-35,23-79,51-98,61c-19,11-37,23-40,26c-3,4-17,13-31,21c-85,46-114,63-127,75
		c-7,8-17,14-21,14c-11,0-193,124-272,185c-80,62-254,236-294,294c-16,23-49,68-72,99c-23,32-42,65-42,74c-1,9-6,20-12,23
		c-5,4-14,17-20,28c-5,12-13,29-18,37s-19,35-31,60c-21,45-31,64-50,98c-6,9-13,24-16,32c-11,29-37,85-46,100c-4,8-11,22-14,30
		s-12,27-20,42c-8,14-14,33-14,41c0,9-6,28-14,44c-26,51-46,103-46,117c0,8-7,27-15,42c-8,16-15,38-15,49c0,12-4,25-10,31
		c-5,5-14,30-19,54c-16,72-33,133-47,167c-8,17-14,42-14,56s-7,38-15,53c-8,16-15,45-15,65c0,19-4,39-9,45c-5,5-14,38-20,74
		c-14,92-32,172-41,191c-5,9-11,42-15,75c-3,32-10,68-15,79c-8,21-23,122-41,285c-5,52-14,99-20,104c-5,6-9,24-9,40
		c0,53-13,62-52,39c-29-17-33-24-36-67c-2-27,2-61,8-76c6-14,15-67,20-116c4-49,13-107,19-129c13-50,14-102,1-110c-5-3-22,1-37,8
		c-28,15-68,7-153-31c-48-21-130-101-130-126c0-12-7-30-15-40c-21-27-20-183,0-210c8-11,15-34,15-50c0-17,7-40,15-50
		c8-11,15-30,15-43s4-23,9-23s13-9,16-20c9-29,69-116,102-148c26-25,92-74,131-97c9-5,33-22,53-37c20-16,44-28,52-28s20-7,27-15
		c19-23,97-20,112,5c17,27,28,25,28-6c0-14,6-38,14-52c18-36,37-91,43-124c3-15,11-33,19-39s14-19,14-28c0-14,34-92,76-174
		c8-16,14-34,14-42c0-7,7-18,15-25s15-20,15-30s7-23,15-30s15-20,15-30s7-23,15-30s15-20,15-30s7-23,15-30s15-19,15-26
		c0-8,20-43,45-80c25-36,45-68,45-72c0-4,14-23,31-42c16-19,54-67,84-106c84-110,287-283,443-379c9-6,44-28,77-50
		c68-45,91-60,120-75c11-6,34-19,50-30c17-11,37-23,45-27c8-3,31-19,51-35c20-15,41-28,47-28c5,0,60-34,121-75c62-41,118-75,126-75
		c7,0,15-4,17-8c5-11,77-52,92-52c8,0,19-7,26-15s22-15,34-15c11,0,30-7,40-15c11-8,31-15,45-15s35-7,45-15c11-8,38-15,61-15
		s46-5,53-12c6-6,47-15,89-19c43-4,96-12,118-18c61-16,341-13,390,4c22,8,51,15,65,15s38,7,54,15c15,8,38,15,50,15s31,7,42,15
		c10,8,27,15,37,15c11,0,31,6,45,13c15,8,42,21,60,30c19,9,42,17,52,17c9,0,23,7,30,15s20,15,30,15s23,7,30,15s19,15,26,15
		c33,0,216,140,319,245c306,311,397,419,508,600c7,11,24,36,38,55s29,42,32,50c4,8,16,29,27,45c11,17,23,37,26,45
		c8,20,63,138,80,173c8,16,14,39,14,52c0,12,7,28,15,35s15,24,15,39c0,14,7,35,15,45c8,11,15,32,15,46s7,35,15,46c8,10,15,39,15,64
		s7,56,15,70s14,48,15,76c0,28,7,71,15,94c9,25,15,78,15,130c0,55,6,101,15,123c11,26,15,74,15,169l1,133l80,65
		c141,115,195,184,258,330c33,78,44,222,22,300c-27,94-43,117-121,168c-48,32-64,37-131,40l-77,4l-6,37c-14,88-6,111,43,111
		c24,0,53,34,45,53c-6,17-67,57-87,57c-7,0-25,14-41,30c-24,24-38,30-73,30c-32,0-73,14-159,56c-64,31-124,64-133,73s-35,30-57,48
		c-53,41-120,129-130,168c-4,17-10,35-14,40c-16,20-21,81-11,135c20,109,33,165,41,175c4,6,10,32,14,59c3,27,11,55,17,62
		c7,8,11,77,11,186c0,138-4,179-16,203c-9,17-16,44-16,62c0,17-4,34-9,37c-5,4-12,24-16,45c-4,22-13,45-21,52c-8,6-14,22-14,35
		s-4,24-10,24c-5,0-10,5-10,11c0,42-148,226-207,257c-67,36-80-5-21-66c57-58,138-169,138-188c0-8,4-14,10-14c5,0,13-12,16-27
		c4-15,13-38,20-52c8-14,14-34,14-43s4-19,9-22s12-27,16-53c4-27,10-52,15-58c12-16,19-214,10-295c-4-41-16-102-25-135
		s-22-83-29-112c-6-28-15-55-19-59s-7-53-7-108c0-56-4-107-9-114c-19-31-150,68-173,131c-5,15-14,27-19,27s-9,10-9,23
		c0,12-7,31-15,41c-8,11-15,38-15,61s-7,64-15,91c-11,37-15,103-15,269c0,175-3,226-15,249c-8,15-15,47-15,71c0,26-6,47-15,55
		c-8,7-15,27-15,45c0,18-7,38-15,45s-15,20-15,30s-7,23-15,30s-15,18-15,25c0,16-79,95-95,95c-7,0-18,7-25,15s-27,15-44,15
		c-18,0-37,5-44,12c-16,16-109,16-150-1c-38-16-62-9-62,18C3743.3,8492.3,3686.3,8502.3,3642.3,8479.3z M5448.3,6270.3l58-53v-115
		c0-88-4-124-16-149c-10-18-17-39-17-46s-7-19-15-28c-8-8-19-24-23-36c-10-26-152-170-168-170c-7,0-14-3-17-7c-2-5-2-1,0,7
		s7,152,9,320c3,168,7,311,10,318c2,8,24,12,62,12C5388.3,6323.3,5392.3,6321.3,5448.3,6270.3z M715.3,5613.3c7-36,16-69,19-75
		c4-5,10-35,13-65c4-30,11-64,16-75s11-41,15-67c3-26,10-50,16-53c5-4,9-21,9-38c0-18,7-45,15-61c8-15,15-38,15-50c0-11,7-34,15-50
		c14-27,21-86,10-86c-3,0-22,10-43,23c-20,13-44,27-52,31c-101,48-254,179-281,240c-5,12-13,28-18,36c-19,34-41,92-41,113
		c-1,12-7,33-15,47c-36,64-4,198,58,242c48,34,105,58,141,58c18,0,41,6,52,14c18,14,20,11,31-52
		C697.3,5708.3,708.3,5649.3,715.3,5613.3z"/>
	<path class="st0" d="M5210.3,8366.3c-16-15-4-42,36-84c23-24,51-61,62-81c11-21,23-38,26-38c4,0,12-12,18-27c6-16,15-35,20-43
		c8-14,20-41,58-127c9-21,22-50,30-65c7-14,13-37,13-50c0-12,7-32,15-42c8-11,15-34,15-51s5-36,11-42c11-11,31-195,31-278
		c0-56-20-193-31-213c-5-9-12-36-16-59c-4-24-11-45-16-49c-5-3-9-20-9-38s-7-41-15-52c-8-10-15-29-15-41s-6-37-14-55
		c-37-89-44-127-29-148c8-11,22-20,32-20c26,0,60,41,67,80c4,19,10,40,15,45c4,6,13,29,18,50c6,22,17,65,26,95s21,73,26,95
		s12,47,16,55c17,39,35,174,35,260c0,93-21,275-34,295c-3,6-9,28-13,50s-11,45-15,50c-4,6-11,26-15,45s-11,41-15,50
		c-4,8-18,38-30,65c-19,45-60,127-96,194c-7,13-16,27-21,30c-4,3-20,24-34,46c-50,76-81,105-115,105
		C5230.3,8373.3,5213.3,8370.3,5210.3,8366.3z"/>
	<path class="st0" d="M1348.3,6887.3c-27-3-64-11-82-19c-17-8-36-15-42-15c-19,0-114-65-149-102c-30-31-33-40-30-83c2-27,8-50,15-52
		c7-3,28,11,46,29c83,81,136,118,169,118c13,1,34,7,48,15c36,20,358,21,415,0c22-8,71-14,108-15c38,0,76-4,86-10c10-5,49-14,87-19
		c79-11,151-28,177-42c32-18,110-22,129-7c15,11,16,17,5,37c-13,26-22,32-77,54c-91,36-221,65-340,76c-47,5-95,13-106,19
		C1785.3,6883.3,1438.3,6894.3,1348.3,6887.3z"/>
	<path class="st0" d="M3744.3,6608.3c-18-8-42-15-53-15s-34-6-51-14c-18-7-52-21-77-31c-96-39-136-59-166-81c-17-13-35-24-41-24
		c-5,0-22-15-38-34c-24-29-33-33-60-29c-21,3-35,0-44-11c-11-12-33-16-103-16c-56,0-102-5-125-15c-19-8-59-15-87-15
		c-30,0-60-6-72-15c-10-8-38-15-60-15c-24,0-47-6-54-15c-7-8-29-15-50-15s-43-7-50-15s-18-15-25-15s-18-7-25-15c-12-14-17-12-45,15
		c-17,16-38,30-47,30c-8,0-21,7-28,15s-22,15-34,15c-11,0-30,7-40,15c-11,8-31,15-45,15s-35,7-45,15c-11,8-36,15-55,15
		c-20,1-47,7-61,15c-37,21-517,22-546,0c-10-8-35-15-54-15s-44-7-54-15c-11-8-29-15-41-15s-30-7-41-15c-10-8-31-15-45-15
		c-15,0-32-7-39-15s-19-15-27-15c-21,0-72-30-108-62c-23-20-42-28-80-30l-50-3l-3-94c-2-65,2-108,13-139c8-25,15-65,15-89
		s7-60,15-80c8-19,15-52,15-72c0-21,7-46,15-57c8-10,15-35,15-55c0-19,7-44,15-55c8-10,15-30,15-42c0-13,6-36,14-50
		c7-15,23-48,35-74s26-50,32-53c5-4,9-15,9-25c0-20,163-190,204-212c13-7,46-24,73-37c26-13,60-30,75-37c14-8,48-14,75-14
		c26,0,70-7,97-15c56-17,170-19,236-4c25,6,70,14,100,18c54,8,110,25,140,42c8,5,22,12,30,15s22,10,30,15s24,13,36,18
		c30,13,136,119,162,163c38,62,82,152,82,169c0,8,5,20,10,25c6,6,13,35,16,65s10,63,15,74c12,24,6,238-9,335c-9,64-38,166-52,185
		c-4,6-11,24-14,41c-6,27-4,32,16,38c13,3,39,6,58,6s44,7,54,15c11,8,38,15,61,15s47,6,53,13c7,6,45,15,85,18c40,4,92,12,117,19
		c46,12,154,10,167-3c4-4,9-101,11-215c2-148,7-218,18-245c8-20,14-57,14-80c0-24,7-52,15-63c8-10,15-30,15-42c0-21,8-41,41-102
		c43-79,55-99,80-128c16-18,29-36,29-40c0-12,120-131,148-146c84-46,171-86,188-86c11,0,29-7,40-15c10-8,35-15,55-15s53-7,72-15
		c24-10,70-15,132-15s108,5,132,15c19,8,43,15,52,15s47,16,86,35c100,51,168,125,233,255c28,58,52,112,52,121s3,19,8,23
		c4,4,13,35,21,69c28,123,12,569-21,603c-5,4-8,19-8,34c0,22-38,103-116,251c-20,37-63,78-99,95c-16,7-37,18-45,23
		c-61,38-85,41-332,41C3831.3,6622.3,3771.3,6619.3,3744.3,6608.3z M4297.3,6502.3c64-31,118-78,136-122c6-12,15-31,22-42
		c23-41,28-50,34-65c3-8,9-22,14-31s12-34,16-55c3-22,11-47,16-58c12-21,31-239,31-341c0-87-19-225-33-239c-5-5-10-17-10-26
		c0-13-25-65-82-172c-31-58-139-158-170-158c-8,0-19-5-26-12c-35-35-339-39-380-6c-7,6-29,14-50,19c-57,12-102,31-163,71
		c-67,43-92,68-167,168c-98,129-137,230-152,390c-4,47-13,105-19,130c-7,28-11,107-9,205c3,154,4,160,24,163c12,2,34,16,49,33
		c16,16,36,29,46,29c9,0,22,7,29,15s21,15,31,15c11,0,19,4,19,9s10,13,23,16c12,4,36,12,52,19c44,20,95,37,135,46c19,4,46,12,60,18
		c15,6,113,11,242,11l217,1L4297.3,6502.3z M2133.3,6278.3c14-8,41-14,61-15c19,0,44-7,55-15c10-8,30-15,44-15s34-7,44-15
		c11-8,30-15,42-15c13,0,26-5,29-11c4-5,18-14,31-19s29-20,34-32c6-13,14-30,19-38c29-51,41-81,41-102c0-13,5-29,12-36
		c21-21,47-337,29-355c-6-6-11-31-11-56c0-26-7-59-15-75c-8-15-15-34-15-42c0-7-16-43-35-81c-37-74-175-223-205-223
		c-10,0-23-7-30-15s-26-15-42-15s-40-7-53-16c-36-24-427-24-473,0c-17,9-40,16-51,16s-22,4-25,9s-25,19-48,31
		c-64,33-187,165-226,240c-17,36-32,72-32,81s-7,22-15,29s-15,27-15,44s-7,40-15,50c-8,11-15,36-15,55c0,20-7,45-15,55
		c-8,11-15,40-15,64s-5,53-12,65c-6,12-15,54-20,92c-4,39-10,89-14,112c-4,32-2,46,10,58c25,25,117,85,130,85c7,0,21,7,32,15
		c10,8,31,15,45,15c15,0,32,7,39,15s27,15,45,15s38,7,45,15s29,15,49,15c20,1,47,7,61,15c20,11,73,14,250,14
		S2113.3,6289.3,2133.3,6278.3z"/>
</g>
<g>
	<path d="M968.8,478c-10.9,15.7-26.1,28.5-45.7,38.4c-19.6,9.9-41.9,14.8-66.9,14.8c-21.1,0-37.8-1.7-50.1-5.1
		c-12.3-3.4-18.5-8.2-18.5-14.3c0-3.2,2.3-8.7,7.1-16.3c4.7-7.6,8.3-11.4,10.9-11.4c3.9,0,5.8,0.8,5.8,2.4c0,1-0.6,2.1-1.7,3.4
		c-1.1,1.3-1.7,2.6-1.7,3.9c0,1,2,2.4,6.1,4.4c4.1,1.9,10.3,3.7,18.7,5.3c8.4,1.6,18.6,2.4,30.6,2.4c19.1,0,35.9-3.7,50.3-11.2
		c14.4-7.5,25.5-16.9,33.3-28.2c7.8-11.3,11.7-22.4,11.7-33.1c0-13.9-6.7-25.9-20.2-36c-13.5-10-35.1-19.6-64.9-28.7
		c-28.9-9.4-51.2-17.3-66.9-23.6c-15.7-6.3-28.5-14.1-38.2-23.3c-9.7-9.2-14.6-20.5-14.6-33.8c0-17.8,10-35.4,30.2-52.8
		c20.1-17.3,44.9-31.4,74.4-42.3c29.5-10.9,56.9-16.3,82.2-16.3c13,0,19.9,2.6,20.9,7.8c1,5.2,1.5,11,1.5,17.5
		c0,4.9-1.8,7.3-5.4,7.3c-1.6,0-3.5-0.6-5.6-1.7c-2.1-1.1-4-2-5.6-2.7c-1.9-0.6-4.2-1.3-6.8-1.9c-2.6-0.6-6.3-1-11.2-1
		c-16.9,0-37.1,4.4-60.8,13.1c-23.7,8.8-44.2,19.6-61.5,32.6c-17.3,13-26,25.5-26,37.4c0,9.7,4,18.2,11.9,25.3
		c7.9,7.1,18.6,13.2,31.9,18.2c13.3,5,32.1,11.3,56.4,18.7c35.7,10.4,62,22.1,79,35c17,13,25.5,28.9,25.5,47.7
		C985.1,446.3,979.7,462.3,968.8,478z"/>
	<path d="M1297.8,394.1c-5.8,1.9-12.9,3.2-21.2,3.6c-8.3,0.5-13.7,0.7-16.3,0.7c-0.3,10.1-1,21.2-1.9,33.6
		c-1,12.3-1.8,22.5-2.4,30.6l-1.5,15.1l-1,15.6l-2.9,37.4c-1.3,16.5-6.6,24.8-16,24.8c-3.6,0-7.1-4.1-10.5-12.4
		c-3.4-8.3-5.1-15-5.1-20.2c0-1.3,1.3-3.9,3.9-7.8c2.6-3.9,4.2-8.8,4.9-14.6c1.3-9.1,2.8-24.2,4.4-45.2c1.6-21.1,2.8-38.7,3.4-53
		c-12.6,1-26.3,2.4-40.9,4.4c-6.5,0.7-21.1,2.1-43.8,4.4c-22.7,2.3-40.5,3.7-53.5,4.4c-1.3,21.4-2.8,47.5-4.4,78.3
		c-1.6,30.8-2.4,49.6-2.4,56.4c0,2.6,0.4,6,1.2,10.2c0.8,4.2,1.2,7.5,1.2,9.7c0,2.9-2.2,5.8-6.6,8.8c-4.4,2.9-7.9,4.4-10.5,4.4
		c-3.2,0-5.9-2.1-8-6.3c-2.1-4.2-3.2-9.1-3.2-14.6c0-2.9,0.3-7.7,1-14.3c0.6-6.6,1.1-12.4,1.5-17.3c1.3-8.8,2.1-15.9,2.4-21.4
		c1.6-19.1,2.9-37.6,3.9-55.4c1-17.8,1.6-29.8,1.9-36c-20.4,3.6-39.7,5.3-57.9,5.3c-6.2,0-11.4-1.5-15.8-4.6
		c-4.4-3.1-6.6-7.5-6.6-13.4c0-4.2,1.1-7.4,3.2-9.5c2.1-2.1,6.4-3.2,12.9-3.2l25.8,0.5c16.9,0.7,30.5,1,40.9,1
		c1.6-27.6,2.4-49.6,2.4-66.1c0-37.6-0.3-71.3-1-101.2v-18c0-4.9,1.9-8.8,5.6-11.9c3.7-3.1,8-4.6,12.9-4.6c3.6,0,6,2.8,7.3,8.3
		c1.3,5.5,1.9,11.7,1.9,18.5c0,7.1-0.8,21.7-2.4,43.8c-1.9,37.6-2.9,57.6-2.9,59.8l-2.4,69.5c27.2-0.6,73.4-4.9,138.6-12.6
		c1.3-9.4,3.6-34,6.8-73.9c1.3-21.1,2.4-36.5,3.4-46.2l2.9-37.9c4.2-47.7,6.3-77.5,6.3-89.5c0-4.2,1.6-7.6,4.9-10.2
		c3.2-2.6,7-3.9,11.2-3.9c5.8,0,8.8,5.7,8.8,17c0,7.1-1.6,26.1-4.9,56.9c-3.6,40.2-5.5,62.6-5.8,67.1c-1.9,25-3.8,48.8-5.6,71.5
		c-1.8,22.7-3,37.9-3.6,45.7c5.8-1,11-2.4,15.6-4.4c5.8-1.9,10.4-2.9,13.6-2.9c3.2,0,7,1.9,11.2,5.8c4.2,3.9,6.3,6.6,6.3,8.3
		C1309,388.1,1305.3,391.9,1297.8,394.1z"/>
	<path d="M1626.6,218.1c-6.2,2.6-15.2,5-27.2,7.3c-13.3,2.6-30.2,5.1-50.6,7.5s-37,4-49.6,4.6c-1,13.9-2.3,54.2-3.9,120.6
		c-1.6,66.5-2.6,115.6-2.9,147.4c17.5-0.3,40.5-1.5,69.1-3.4c24-1.3,37.4-1.9,40.4-1.9c5.8,0,11.1,1.3,15.8,3.9
		c4.7,2.6,7.1,6.6,7.1,12.2c0,4.5-0.7,7.8-2.2,9.7c-1.5,1.9-4.6,2.9-9.5,2.9c-1.9,0-7.3-0.5-16-1.5c-6.5-1.3-12-1.9-16.5-1.9
		c-15.2,0-45.7,1-91.4,2.9c-1.6,2.3-3.5,4-5.6,5.1c-2.1,1.1-4,1.7-5.6,1.7c-1.9,0-3.9-0.5-5.8-1.5s-3.1-2.4-3.4-4.4l-21.9,2.4
		c-25.3,3.2-44.1,4.9-56.4,4.9c-10.7,0-18.8-2.3-24.3-6.8c-2.9-2.6-4.4-7.3-4.4-14.1c0-1.9,1-4.4,3.2-7.3c2.1-2.9,4.3-4.4,6.6-4.4
		c0.6,0,3.2,0.9,7.5,2.7c4.4,1.8,8.5,2.7,12.4,2.7c12,0,29.7-0.6,53-1.9l22.4-1.5l2.9-71.5c0.3-7.5,0.6-14.2,1-20.2
		c0.3-6,0.5-11.1,0.5-15.3l4.9-159c-33.7,2.3-49.8,3.4-48.1,3.4c-33.1,2.6-52.5,3.9-58.4,3.9c-5.5,0-10.7-1.8-15.6-5.4
		c-4.9-3.6-7.3-8.1-7.3-13.6c0-3.9,1-7,3.2-9.2c2.1-2.3,4.9-3.4,8.5-3.4c2.6,0,5.2,0.2,7.8,0.5c2.6,0.3,5.2,0.7,7.8,1
		c8.1,1.6,15.9,2.4,23.3,2.4c7.1,0,20.7-0.6,40.9-1.7c20.1-1.1,33.6-1.9,40.4-2.2c0.3-4.2,1.8-7.7,4.4-10.5c2.6-2.8,6-4.1,10.2-4.1
		c1.9,0,3.6,1.3,4.9,3.9c1.3,2.6,1.9,5.5,1.9,8.8c18.8-0.6,52.7-4.9,101.6-12.6c3.9-0.6,8.2-2.4,12.9-5.4c4.7-2.9,7.4-4.4,8-4.4
		c3.2,0,6.3,1.3,9.2,3.9c2.9,2.6,4.4,5.8,4.4,9.7C1635.8,211.1,1632.8,215.5,1626.6,218.1z"/>
	<path d="M1924.2,517.7c-2.3,0-17.4-17.4-45.5-52.3c-28-34.9-51.2-64.6-69.3-89.2c-2.6-3.6-10.9-15.4-24.8-35.5
		c-20.4-29.8-33.1-47.8-37.9-54l-1,37.4l-0.5,36.5c0,23-0.2,48-0.7,74.9c-0.5,26.9-1.1,48.3-1.7,64.2c-0.3,3.9-2,7.5-5.1,10.7
		c-3.1,3.2-6.2,4.9-9.5,4.9c-3.6,0-6.1-1-7.5-3.2c-1.5-2.1-2.2-6.2-2.2-12.4c0-3.9,0.6-15.9,1.9-36c2.9-37.3,4.4-68.6,4.4-93.9
		c0-20.1,0.3-39.2,1-57.1c0.6-18,1-29.1,1-33.3l0.5-14.1v-1.5c0-3.6,0.6-6.4,1.7-8.5c1.1-2.1,3.5-3.2,7.1-3.2h2.4
		c3.6,0,10.6,6.4,21.2,19.2c10.5,12.8,23.9,30.2,40.1,52.3c3.6,4.5,7,9,10.2,13.4c3.2,4.4,6.3,8.5,9.2,12.4
		c18.5,23.7,28.2,36.2,29.2,37.4c46,58.7,71.2,92.1,75.4,100.2c-0.7-2.6-1.8-8.6-3.4-18c-1.6-9.4-3.2-21.7-4.6-37
		c-1.5-15.2-2.2-31-2.2-47.2c0-28.9-2.8-67-8.3-114.3c-1.6-15.6-2.4-25.1-2.4-28.7c0-12.3,7-18.5,20.9-18.5c3.2,0,5.7,3.3,7.3,10
		c1.6,6.6,2.8,20.7,3.4,42.1c0.6,21.4,1,55.6,1,102.6c0,14.9,0.6,29.5,1.7,43.8c1.1,14.3,2.2,26.9,3.2,37.9
		c1.6,15.2,2.4,26.7,2.4,34.5l0.5,17.5C1943.2,515.7,1936.9,517.7,1924.2,517.7z"/>
	<path d="M2251.8,489.5c-3.7,2.6-8.2,4.1-13.4,4.4l-83.7,6.3l-57.9,4.9l-30.2,2.4c-2.6,0-4.9-1.6-7.1-4.9c-2.1-3.2-3.2-6.3-3.2-9.2
		c0-2.3,0.7-4,2.2-5.1c1.5-1.1,3.1-1.9,4.9-2.4c1.8-0.5,3-0.9,3.6-1.2c0.3-17.5,0.5-58.4,0.5-122.6c0-47.3-1.9-84.1-5.6-110.2
		c-3.7-26.1-5.6-40.1-5.6-42.1c0-4.5,1.7-8.1,5.1-10.7c3.4-2.6,6.9-3.9,10.5-3.9c2.3,0,4.1,0.9,5.4,2.7c1.3,1.8,2.3,4.6,2.9,8.5
		c3.2,11,5.8,31.3,7.5,60.8c1.8,29.5,2.7,60.3,2.7,92.4c0,27.2-0.2,52.5-0.5,75.9c-0.3,23.3-0.5,39.1-0.5,47.2
		c4.2-0.3,12.3-0.9,24.3-1.7c12-0.8,24.3-1.7,37-2.7c18.8-2.3,40-5.7,63.7-10.2c19.1-3.6,30.6-5.3,34.5-5.3c3.6,0,5.8,1.6,6.8,4.9
		c1,3.2,1.5,7.1,1.5,11.7C2257.4,483.5,2255.5,486.9,2251.8,489.5z"/>
</g>
</svg>
