<?xml version="1.0" encoding="utf-8"?>
<!-- Generator: Adobe Illustrator 23.0.0, SVG Export Plug-In . SVG Version: 6.00 Build 0)  -->
<svg version="1.1" id="Layer_1" xmlns="http://www.w3.org/2000/svg" xmlns:xlink="http://www.w3.org/1999/xlink" x="0px" y="0px"
	 viewBox="0 0 1050 420" style="enable-background:new 0 0 1050 420;" xml:space="preserve">
<style type="text/css">
	.st0{fill:#FFCC33;}
	.st1{fill:#F8DC3D;}
	.st2{fill:#FFFFFF;}
	.st3{fill:#EBEBEB;}
	.st4{fill:#131313;}
</style>
<polygon class="st0" points="403.3,386.2 376.3,82.6 673.7,82.6 646.6,386.2 524.8,419.9 "/>
<polygon class="st1" points="525,394.1 623.4,366.8 646.6,107.4 525,107.4 "/>
<g>
	<g>
		<polygon class="st2" points="525.2,210 525.2,247.3 571.1,257.3 566.7,305.6 525.2,316.8 525.2,355.5 601.5,334.4 602.1,328.1 
			611.8,230 		"/>
		<polygon class="st2" points="601.2,142.8 524.9,121.6 524.9,160.4 601.2,181.9 		"/>
	</g>
	<g>
		<g>
			<polygon class="st3" points="525.3,210 477.1,220 483.4,171.6 524.8,160.4 525,160.4 525,121.7 524.8,121.6 448.5,142.8 
				438.7,220 438.7,220 438.7,220.1 438.7,220.2 438.7,220.2 442,257.3 442.2,257.3 448.9,334.4 525.2,355.5 525.3,355.5 
				525.3,316.7 525.2,316.8 483.7,305.6 479.6,257.3 525.3,247.3 			"/>
		</g>
	</g>
</g>
<g>
	<polygon class="st4" points="577.7,15.6 553,15.6 578.7,43.5 578.7,56.7 525.8,56.7 525.8,41.2 551.5,41.2 525.8,13.3 525.8,0.1 
		577.7,0.1 	"/>
	<polygon class="st4" points="515.2,16.2 515.2,0.1 469.6,0.1 469.6,56.7 515.2,56.7 515.2,40.6 488.5,40.6 488.5,34.9 514.2,34.9 
		514.2,21.9 488.5,21.9 488.5,16.2 	"/>
</g>
</svg>
