<?xml version="1.0" encoding="utf-8"?>
<!-- Generator: Adobe Illustrator 23.0.0, SVG Export Plug-In . SVG Version: 6.00 Build 0)  -->
<svg version="1.1" id="Layer_1" xmlns="http://www.w3.org/2000/svg" xmlns:xlink="http://www.w3.org/1999/xlink" x="0px" y="0px"
	 viewBox="0 0 3875 1550" style="enable-background:new 0 0 3875 1550;" xml:space="preserve">
<style type="text/css">
	.st0{fill:#539E43;}
	.st1{fill:#333333;}
	.st2{fill:url(#SVGID_1_);}
	.st3{fill:none;}
	.st4{fill:url(#SVGID_2_);}
	.st5{fill-rule:evenodd;clip-rule:evenodd;fill:url(#SVGID_3_);}
	.st6{fill-rule:evenodd;clip-rule:evenodd;fill:url(#SVGID_4_);}
	.st7{fill-rule:evenodd;clip-rule:evenodd;fill:url(#SVGID_5_);}
	.st8{fill-rule:evenodd;clip-rule:evenodd;fill:url(#SVGID_6_);}
	.st9{fill-rule:evenodd;clip-rule:evenodd;fill:url(#SVGID_7_);}
</style>
<g>
	<path class="st0" d="M1923.4,1537.1c-8.5,0-16.4-2.3-23.7-6.2l-75-44.6c-11.3-6.2-5.6-8.5-2.3-9.6c15.2-5.1,18.1-6.2,33.9-15.2
		c1.7-1.1,4-0.6,5.6,0.6l57.6,34.4c2.3,1.1,5.1,1.1,6.8,0l225.1-130.3c2.3-1.1,3.4-3.4,3.4-6.2v-260.1c0-2.8-1.1-5.1-3.4-6.2
		l-225.1-129.8c-2.3-1.1-5.1-1.1-6.8,0l-225.1,129.8c-2.3,1.1-3.4,3.9-3.4,6.2V1360c0,2.3,1.1,5.1,3.4,6.2l61.5,35.5
		c33.3,16.9,54.2-2.8,54.2-22.6v-256.7c0-3.4,2.8-6.8,6.8-6.8h28.8c3.4,0,6.8,2.8,6.8,6.8v256.7c0,44.6-24.3,70.5-66.6,70.5
		c-13,0-23.1,0-51.9-14.1l-59.2-33.9c-14.7-8.5-23.7-24.3-23.7-41.2v-260.1c0-16.9,9-32.7,23.7-41.2l225.1-130.3
		c14.1-7.9,33.3-7.9,47.4,0l225.1,130.3c14.7,8.5,23.7,24.3,23.7,41.2v260.1c0,16.9-9,32.7-23.7,41.2L1947.1,1532
		C1939.8,1535.4,1931.3,1537.1,1923.4,1537.1L1923.4,1537.1z M1992.8,1358.2c-98.7,0-119.1-45.1-119.1-83.5c0-3.4,2.8-6.8,6.8-6.8
		h29.3c3.4,0,6.2,2.3,6.2,5.6c4.5,29.9,17.5,44.6,77.3,44.6c47.4,0,67.7-10.7,67.7-36.1c0-14.7-5.6-25.4-79.6-32.7
		c-61.5-6.2-99.9-19.7-99.9-68.8c0-45.7,38.4-72.8,102.7-72.8c72.2,0,107.8,24.8,112.3,79c0,1.7-0.6,3.4-1.7,5.1
		c-1.1,1.1-2.8,2.3-4.5,2.3H2061c-2.8,0-5.6-2.3-6.2-5.1c-6.8-31-24.3-41.2-70.5-41.2c-51.9,0-58.1,18.1-58.1,31.6
		c0,16.4,7.3,21.4,77.3,30.5c69.4,9,102.1,22,102.1,70.5C2105.1,1330,2064.5,1358.2,1992.8,1358.2z"/>
	<path class="st1" d="M1224.8,519.7c0-10.2-5.6-19.8-14.7-24.8L970.9,357.2c-4-2.3-8.5-3.4-13-4h-2.3c-4.5,0-9,1.7-13,4L703.5,494.9
		c-9,5.1-14.7,14.7-14.7,24.8l0.6,370.2c0,5.1,2.8,10.2,7.3,12.4c4.5,2.8,10.2,2.8,14.1,0L853,821c9-5.1,14.7-14.7,14.7-24.8V623
		c0-10.2,5.6-19.7,14.7-24.8l60.4-35c4.5-2.8,9.6-4,14.7-4s10.2,1.1,14.1,4l60.4,35c9,5.1,14.7,14.7,14.7,24.8v173.2
		c0,10.2,5.6,19.7,14.7,24.8l142.2,81.3c4.5,2.8,10.2,2.8,14.7,0c4.5-2.3,7.3-7.3,7.3-12.4L1224.8,519.7L1224.8,519.7z M2374.8,10.2
		c-4.5-2.3-10.2-2.3-14.1,0c-4.5,2.8-7.3,7.3-7.3,12.4v366.8c0,3.4-1.7,6.8-5.1,9c-3.4,1.7-6.8,1.7-10.2,0l-59.8-34.4
		c-8.9-5.1-19.9-5.1-28.8,0l-239.2,138.2c-9,5.1-14.7,14.7-14.7,24.8v276c0,10.2,5.6,19.8,14.7,24.8L2249.5,966
		c8.9,5.1,19.9,5.1,28.8,0l239.2-138.2c9-5.1,14.7-14.7,14.7-24.8V115.1c0-10.7-5.6-20.3-14.7-25.4L2374.8,10.2L2374.8,10.2z
		 M2352.8,712.1c0,2.8-1.1,5.1-3.4,6.2l-81.8,47.4c-2.3,1.1-5,1.1-7.3,0l-81.8-47.4c-2.3-1.1-3.4-3.9-3.4-6.2v-94.8
		c0-2.8,1.1-5.1,3.4-6.2l81.8-47.4c2.3-1.1,5-1.1,7.3,0l81.8,47.4c2.3,1.1,3.4,3.9,3.4,6.2V712.1L2352.8,712.1z M3171,615.1
		c9-5.1,14.1-14.7,14.1-24.8v-67.1c0-10.2-5.6-19.7-14.1-24.8l-237.6-137.7c-8.9-5.1-19.9-5.1-28.8,0l-239.2,138.2
		c-9,5.1-14.7,14.7-14.7,24.8v275.9c0,10.2,5.6,19.7,14.7,24.8L2903,959.8c9,5.1,19.7,5.1,28.2,0l143.9-80.1
		c4.5-2.3,7.3-7.3,7.3-12.4c0-5.1-2.8-10.2-7.3-12.4l-240.4-138.2c-4.5-2.8-7.3-7.3-7.3-12.4V618c0-5.1,2.8-10.2,7.3-12.4l75-42.9
		c4.5-2.8,10.2-2.8,14.7,0l75,42.9c4.5,2.8,7.3,7.3,7.3,12.4v67.7c0,5.1,2.8,10.2,7.3,12.4c4.5,2.8,10.2,2.8,14.7,0L3171,615.1
		L3171,615.1z"/>
	<path class="st0" d="M2915.4,602.1c1.7-1.1,3.9-1.1,5.6,0l45.7,26.5c1.7,1.1,2.8,2.8,2.8,5.1v53c0,2.3-1.1,3.9-2.8,5.1l-45.7,26.5
		c-1.7,1.1-3.9,1.1-5.6,0l-45.7-26.5c-1.7-1.1-2.8-2.8-2.8-5.1v-53c0-2.3,1.1-4,2.8-5.1L2915.4,602.1z"/>
	<g transform="translate(134.068 70.501)">
		<g>
			
				<linearGradient id="SVGID_1_" gradientUnits="userSpaceOnUse" x1="3164.8774" y1="-27.0852" x2="3164.4736" y2="-26.3625" gradientTransform="matrix(532.1024 0 0 606.2871 -1682465.75 16814.748)">
				<stop  offset="0" style="stop-color:#41873F"/>
				<stop  offset="0.3288" style="stop-color:#418B3D"/>
				<stop  offset="0.6352" style="stop-color:#419637"/>
				<stop  offset="0.9319" style="stop-color:#3FA92D"/>
				<stop  offset="1" style="stop-color:#3FAE2A"/>
			</linearGradient>
			<path class="st2" d="M1490.8,291.2c-8.9-5.1-19.9-5.1-28.8,0l-237.5,137.1c-9,5.1-14.1,14.7-14.1,24.8V728
				c0,10.2,5.6,19.7,14.1,24.8l237.6,137.1c8.9,5.1,19.9,5.1,28.8,0l237.6-137.1c9-5.1,14.1-14.7,14.1-24.8V453.2
				c0-10.2-5.6-19.7-14.1-24.8L1490.8,291.2z"/>
		</g>
		<g>
			<path class="st3" d="M1461.5,291.2l-238.1,137.1c-9,5.1-15.2,14.7-15.2,24.8V728c0,6.8,2.8,13,7.3,18.1L1483,287.9
				C1476.2,286.7,1468.3,287.3,1461.5,291.2L1461.5,291.2z M1484.6,892.7c2.3-0.6,4.5-1.7,6.8-2.8l238.1-137.1
				c9-5.1,14.7-14.7,14.7-24.8V453.2c0-7.3-3.4-14.7-8.5-19.7L1484.6,892.7L1484.6,892.7z"/>
			
				<linearGradient id="SVGID_2_" gradientUnits="userSpaceOnUse" x1="3164.5051" y1="-26.7091" x2="3165.6648" y2="-27.4439" gradientTransform="matrix(519.687 0 0 606.0386 -1643111.875 16809.4746)">
				<stop  offset="0.1376" style="stop-color:#41873F"/>
				<stop  offset="0.4032" style="stop-color:#54A044"/>
				<stop  offset="0.7136" style="stop-color:#66B848"/>
				<stop  offset="0.9081" style="stop-color:#6CC04A"/>
			</linearGradient>
			<path class="st4" d="M1728.9,428.3l-238.7-137.1c-2.3-1.2-4.8-2.1-7.3-2.8l-267.4,458.2c2.2,2.7,4.9,5,7.9,6.8l238.7,137.1
				c6.8,3.9,14.7,5.1,22,2.8L1735.2,434C1733.5,431.7,1731.2,430,1728.9,428.3L1728.9,428.3z"/>
		</g>
		<g>
			<path class="st3" d="M1744.2,728V453.2c0-10.2-6.2-19.7-15.2-24.8l-238.7-137.1c-2.8-1.7-5.8-2.9-9-3.4l261.2,446.3
				C1743.6,732.5,1744.2,730.2,1744.2,728L1744.2,728z M1223.4,428.3c-9,5.1-15.2,14.7-15.2,24.8V728c0,10.2,6.8,19.7,15.2,24.8
				l238.7,137.1c5.6,3.4,11.8,4.5,18.6,3.4l-255.6-465.5L1223.4,428.3L1223.4,428.3z"/>
			
				<linearGradient id="SVGID_3_" gradientUnits="userSpaceOnUse" x1="2515.6199" y1="-654.8411" x2="2613.0369" y2="-654.8411" gradientTransform="matrix(4.5111 0 0 1.6941 -10096.5762 1351.2164)">
				<stop  offset="9.192000e-02" style="stop-color:#6CC04A"/>
				<stop  offset="0.2864" style="stop-color:#66B848"/>
				<stop  offset="0.5968" style="stop-color:#54A044"/>
				<stop  offset="0.8624" style="stop-color:#41873F"/>
			</linearGradient>
			<path class="st5" d="M1454.2,241l-3.4,1.7h4.5L1454.2,241z"/>
			
				<linearGradient id="SVGID_4_" gradientUnits="userSpaceOnUse" x1="3164.0227" y1="-26.7591" x2="3165.0815" y2="-26.7591" gradientTransform="matrix(519.1255 0 0 606.527 -1641323.25 16820.7305)">
				<stop  offset="9.192000e-02" style="stop-color:#6CC04A"/>
				<stop  offset="0.2864" style="stop-color:#66B848"/>
				<stop  offset="0.5968" style="stop-color:#54A044"/>
				<stop  offset="0.8624" style="stop-color:#41873F"/>
			</linearGradient>
			<path class="st6" d="M1729.5,752.8c6.8-3.9,11.8-10.7,14.1-18.1l-261.8-446.9c-6.8-1.1-14.1-0.6-20.3,3.4l-237,136.6l255.6,466.1
				c3.7-0.6,7.3-1.7,10.7-3.4L1729.5,752.8L1729.5,752.8z"/>
			
				<linearGradient id="SVGID_5_" gradientUnits="userSpaceOnUse" x1="1448.9497" y1="-295.1327" x2="1546.3667" y2="-295.1327" gradientTransform="matrix(1.6941 0 0 3.9497 -869.4083 1913.1357)">
				<stop  offset="9.192000e-02" style="stop-color:#6CC04A"/>
				<stop  offset="0.2864" style="stop-color:#66B848"/>
				<stop  offset="0.5968" style="stop-color:#54A044"/>
				<stop  offset="0.8624" style="stop-color:#41873F"/>
			</linearGradient>
			<path class="st7" d="M1751.5,748.3l-1.7-2.8v3.9L1751.5,748.3L1751.5,748.3z"/>
			
				<linearGradient id="SVGID_6_" gradientUnits="userSpaceOnUse" x1="3158.0867" y1="-31.3666" x2="3160.1333" y2="-31.3666" gradientTransform="matrix(268.5875 0 0 167.5852 -847020.8125 6074.5737)">
				<stop  offset="9.192000e-02" style="stop-color:#6CC04A"/>
				<stop  offset="0.2864" style="stop-color:#66B848"/>
				<stop  offset="0.5968" style="stop-color:#54A044"/>
				<stop  offset="0.8624" style="stop-color:#41873F"/>
			</linearGradient>
			<path class="st8" d="M1729.5,752.8l-238.1,137.1c-3.4,1.7-7,2.9-10.7,3.4l4.5,8.5l264.1-152.9v-3.4l-6.8-11.3
				C1741.4,742.1,1736.3,748.8,1729.5,752.8L1729.5,752.8z"/>
			
				<linearGradient id="SVGID_7_" gradientUnits="userSpaceOnUse" x1="3160.4297" y1="-33.9782" x2="3159.1675" y2="-29.8514" gradientTransform="matrix(268.5875 0 0 167.5852 -847020.8125 6074.5737)">
				<stop  offset="0" style="stop-color:#41873F"/>
				<stop  offset="0.3288" style="stop-color:#418B3D"/>
				<stop  offset="0.6352" style="stop-color:#419637"/>
				<stop  offset="0.9319" style="stop-color:#3FA92D"/>
				<stop  offset="1" style="stop-color:#3FAE2A"/>
			</linearGradient>
			<path class="st9" d="M1729.5,752.8l-238.1,137.1c-3.4,1.7-7,2.9-10.7,3.4l4.5,8.5l264.1-152.9v-3.4l-6.8-11.3
				C1741.4,742.1,1736.3,748.8,1729.5,752.8L1729.5,752.8z"/>
		</g>
	</g>
</g>
</svg>
