<?xml version="1.0" encoding="utf-8"?>
<!-- Generator: Adobe Illustrator 23.0.0, SVG Export Plug-In . SVG Version: 6.00 Build 0)  -->
<svg version="1.1" id="Layer_1" xmlns="http://www.w3.org/2000/svg" xmlns:xlink="http://www.w3.org/1999/xlink" x="0px" y="0px"
	 viewBox="0 0 4750 1900" style="enable-background:new 0 0 4750 1900;" xml:space="preserve">
<style type="text/css">
	.st0{fill:#CF649A;}
</style>
<path class="st0" d="M3276.4,1089.6c-87.4,0.5-163.1,21.5-226.6,52.7c-23.4-46.4-46.9-86.9-50.8-117.2c-4.4-35.2-9.8-56.6-4.4-98.6
	c5.4-42,29.8-101.6,29.8-106.5c-0.5-4.4-5.4-25.9-55.7-26.4c-50.3-0.5-93.8,9.8-98.6,22.9s-14.6,43.5-21,74.7
	c-8.8,45.9-100.6,208.5-152.8,293.9c-17.1-33.2-31.7-62.5-34.7-85.9c-4.4-35.2-9.8-56.6-4.4-98.6c5.4-42,29.8-101.6,29.8-106.4
	c-0.5-4.4-5.4-25.9-55.7-26.4c-50.3-0.5-93.8,9.8-98.6,22.9c-4.9,13.2-10.3,44.4-21,74.7c-10.3,30.3-132.3,301.8-164.1,372.6
	c-16.1,36.1-30.3,64.9-40.5,84.5c-10.3,19.5-0.5,1.5-1.5,3.4c-8.8,16.6-13.7,25.9-13.7,25.9v0.5c-6.8,12.2-14.2,23.9-17.6,23.9
	c-2.4,0-7.3-32.7,1-77.6c18.1-94.2,62-241.2,61.5-246.6c0-2.4,8.3-28.3-28.3-41.5c-35.6-13.2-48.3,8.8-51.3,8.8
	c-2.9,0-5.4,7.8-5.4,7.8s39.6-165.5-75.7-165.5c-72.3,0-171.9,78.6-221.2,150.4c-31.3,17.1-97.7,53.2-168,91.8
	c-26.9,14.6-54.7,30.3-81.1,44.4l-5.4-5.9c-139.6-148.9-397.9-254.4-387.2-454.6c3.9-72.8,29.3-264.6,496.1-497.1
	c382.3-190.4,688.5-138.2,741.7-22c75.7,166-163.6,474.6-561,519c-151.4,17.1-231-41.5-251-63.5c-21-22.9-23.9-23.9-31.7-19.5
	c-12.7,6.8-4.9,27.3,0,39.6c11.7,30.8,60.5,85.4,143.6,112.8c72.7,23.9,250.5,37.1,465.3-45.9c240.7-93.3,428.7-352.1,373.5-568.4
	C2633.8,22.8,2268.6-49.5,1923.3,73c-205.6,73.2-428.2,187.5-588.4,337.4c-190.4,177.7-220.7,333-208,397.5
	c44.4,230,361.3,379.9,488.3,490.7c-6.3,3.4-12.2,6.8-17.6,9.8c-63.5,31.2-305.2,157.7-365.7,291.5
	c-68.4,151.4,10.7,260.3,63.5,274.9c163.1,45.4,330.1-36.1,420.4-170.4c89.8-134.3,79.1-308.6,37.6-388.2l-1.5-2.9l49.8-29.3
	c32.2-19,64-36.6,91.8-51.8c-15.6,42.5-26.9,92.8-32.7,166c-6.8,85.9,28.3,197.3,74.7,241.2c20.5,19,44.9,19.5,60.1,19.5
	c53.7,0,78.1-44.4,105-97.7c33.2-64.9,62.5-140.1,62.5-140.1s-36.6,203.6,63.5,203.6c36.6,0,73.2-47.4,89.8-71.8v0.5
	c0,0,1-1.5,2.9-4.9c2-3,4-6.1,5.9-9.3v-1c14.6-25.4,47.4-83.5,96.2-179.7c63-124,123.5-279.3,123.5-279.3s5.9,38.1,23.9,100.6
	c10.7,37.1,34.2,77.6,52.2,117.2c-14.6,20.5-23.4,32.2-23.4,32.2l0.5,0.5c-11.7,15.6-24.9,32.2-38.6,48.8
	c-49.8,59.6-109.4,127.4-117.2,147c-9.3,22.9-7.3,40,10.7,53.7c13.2,9.8,36.6,11.7,61.5,9.8c44.9-2.9,76.2-14.2,91.8-21
	c24.4-8.8,52.2-22,79.1-41.5c48.8-36.1,78.6-87.4,75.7-155.8c-1.5-37.6-13.7-74.7-28.8-109.9c4.4-6.3,8.8-12.7,13.2-19.5
	c77.1-112.8,136.7-236.8,136.7-236.8s5.9,38.1,23.9,100.6c9.3,31.7,27.8,66.4,44.4,100.6c-72.3,59.1-117.7,127.4-133.3,172.4
	c-28.8,83-6.3,120.6,36.1,129.4c19,3.9,46.4-4.9,66.9-13.7c25.4-8.3,56.2-22.5,84.5-43.5c48.8-36.1,95.7-86.4,93.3-154.3
	c-1.5-31.2-9.8-62-21-91.3c61.5-25.4,141.1-40,242.2-27.8c217.3,25.4,260.3,161.1,252,217.8c-8.3,56.6-53.7,87.9-68.9,97.7
	c-15.1,9.3-20,12.7-18.6,19.5c2,10.3,8.8,9.8,22,7.8c18.1-2.9,114.3-46.4,118.2-150.9C3629.9,1234.7,3502.4,1088.2,3276.4,1089.6
	L3276.4,1089.6z M1600.6,1654.6c-71.8,78.6-172.9,108.4-215.8,83c-46.4-26.9-28.3-142.6,60.1-226.1
	c53.7-50.8,123.5-97.7,169.4-126.5c10.3-6.3,25.9-15.6,44.4-26.9c2.9-1.9,4.9-2.9,4.9-2.9c3.4-2,7.3-4.4,11.2-6.8
	C1707.5,1467.6,1676.3,1572.1,1600.6,1654.6L1600.6,1654.6z M2125.5,1297.7c-24.9,61-77.6,217.8-109.4,209
	c-27.3-7.3-43.9-126-5.4-243.2c19.5-59.1,61-129.4,85.4-156.7c39.6-43.9,82.5-58.6,93.3-40.5
	C2202.1,1089.6,2141.1,1259.6,2125.5,1297.7z M2558.6,1504.7c-10.7,5.4-20.5,9.3-24.9,6.4c-3.4-2,4.4-9.3,4.4-9.3s54.2-58.1,75.7-85
	c12.2-15.6,26.9-33.7,42.5-54.2v5.9C2656.3,1438.8,2588.9,1485.6,2558.6,1504.7L2558.6,1504.7z M2892.6,1428.5
	c-7.8-5.9-6.8-23.9,19.5-80.6c10.3-22.5,33.7-60.1,74.2-95.7c4.9,14.6,7.8,28.8,7.3,42C2993.2,1382.1,2930.7,1414.8,2892.6,1428.5z"
	/>
</svg>
