<?xml version="1.0" encoding="utf-8"?>
<!-- Generator: Adobe Illustrator 23.0.0, SVG Export Plug-In . SVG Version: 6.00 Build 0)  -->
<svg version="1.1" id="Layer_1" xmlns="http://www.w3.org/2000/svg" xmlns:xlink="http://www.w3.org/1999/xlink" x="0px" y="0px"
	 viewBox="0 0 5000 2000" style="enable-background:new 0 0 5000 2000;" xml:space="preserve">
<style type="text/css">
	.st0{fill-rule:evenodd;clip-rule:evenodd;fill:#7952B3;}
</style>
<path class="st0" d="M1769.3,4.2c-142.6,0-248.2,124.9-243.5,260.3c4.5,130.1-1.4,298.6-43.8,436c-42.6,137.8-114.5,225.1-232,236.3
	v126.5c117.5,11.2,189.5,98.5,232,236.3c42.4,137.4,48.3,305.9,43.8,436c-4.7,135.4,100.8,260.3,243.5,260.3H3231
	c142.6,0,248.2-124.9,243.5-260.3c-4.5-130.1,1.4-298.6,43.8-436c42.6-137.8,114.3-225.1,231.8-236.3V936.7
	c-117.5-11.2-189.3-98.5-231.8-236.3c-42.4-137.4-48.3-305.9-43.8-436C3479.2,129,3373.7,4.1,3231,4.1L1769.3,4.2L1769.3,4.2z
	 M2944.9,1230.2c0,186.4-139.1,299.5-369.9,299.5h-392.9c-23.4,0-42.4-19-42.4-42.4l0,0V512.7c0-23.4,19-42.4,42.4-42.4h390.6
	c192.4,0,318.7,104.2,318.7,264.3c0,112.3-85,212.9-193.2,230.5v5.9C2845.7,987.1,2944.9,1089.2,2944.9,1230.2L2944.9,1230.2z
	 M2532.2,604.7h-224v316.4h188.7c145.8,0,226.3-58.7,226.3-163.7C2723.1,659,2654,604.7,2532.2,604.7L2532.2,604.7z M2308.2,1046.6
	v348.7h232.2c151.9,0,232.3-60.9,232.3-175.4s-82.7-173.3-242.1-173.3H2308.2L2308.2,1046.6z"/>
</svg>
