<?xml version="1.0" encoding="utf-8"?>
<!-- Generator: Adobe Illustrator 23.0.0, SVG Export Plug-In . SVG Version: 6.00 Build 0)  -->
<svg version="1.1" id="Layer_1" xmlns="http://www.w3.org/2000/svg" xmlns:xlink="http://www.w3.org/1999/xlink" x="0px" y="0px"
	 viewBox="0 0 7000 2800" style="enable-background:new 0 0 7000 2800;" xml:space="preserve">
<style type="text/css">
	.st0{fill:#161614;}
	.st1{fill:#151312;}
</style>
<g>
	<path class="st0" d="M1301.3,185.6C613.7,185.6,56.1,743,56.1,1430.7c0,550.2,356.8,1016.9,851.5,1181.5
		c62.2,11.5,85.1-27,85.1-59.9c0-29.7-1.2-127.8-1.7-231.8c-346.4,75.3-419.5-146.9-419.5-146.9
		c-56.6-143.9-138.3-182.2-138.3-182.2c-113-77.3,8.5-75.7,8.5-75.7c125,8.8,190.9,128.3,190.9,128.3
		c111.1,190.4,291.3,135.3,362.3,103.5c11.2-80.5,43.4-135.4,79.1-166.5c-276.6-31.5-567.3-138.3-567.3-615.4
		c0-135.9,48.6-247,128.3-334.2c-12.9-31.4-55.5-158,12.1-329.5c0,0,104.6-33.5,342.5,127.6c99.3-27.6,205.8-41.4,311.7-41.9
		c105.8,0.5,212.4,14.3,311.9,41.9C1850.9,668.5,1955.3,702,1955.3,702c67.8,171.5,25.1,298.2,12.2,329.5
		c79.8,87.2,128.1,198.3,128.1,334.2c0,478.2-291.3,583.6-568.6,614.4c44.7,38.6,84.5,114.4,84.5,230.6c0,166.6-1.4,300.7-1.4,341.7
		c0,33.1,22.4,72,85.5,59.7c494.5-164.8,850.8-631.4,850.8-1181.4C2546.4,743,1988.9,185.6,1301.3,185.6"/>
	<g id="layer1" transform="translate(-85.589293,-376.9046)">
		<g id="g3012" transform="matrix(1.25,0,0,-1.25,85.589293,539.24835)">
			<g id="g3014" transform="scale(0.1,0.1)">
				<g id="g3016">
					<g id="g3018">
						<path id="path3024" class="st1" d="M29687.3-9317.6h-2691.9c-69.4,0-125.8-56.4-125.8-125.8v-1316.1
							c0-69.4,56.3-126,125.8-126h1050.1v-1635.1c0,0-235.8-80.4-887.7-80.4c-769.1,0-1843.4,281-1843.4,2643.5
							c0,2363,1118.7,2673.9,2169,2673.9c909.1,0,1300.8-160.1,1550.1-237.2c78.3-24,150.7,54,150.7,123.5l300.3,1271.6
							c0,32.5-11,71.6-48.1,98.3c-101.2,72.2-718.7,417.7-2278.6,417.7c-1797.1,0-3640.4-764.5-3640.4-4439.9
							c0-3675.5,2110.4-4223.2,3888.9-4223.2c1472.5,0,2365.8,629.3,2365.8,629.3c36.8,20.3,40.8,71.8,40.8,95.4v4104.7
							C29813-9374,29756.7-9317.6,29687.3-9317.6"/>
						<path id="path3026" class="st1" d="M43560-6050.2c0,70-55.5,126.5-124.9,126.5h-1515.7c-69.2,0-125.5-56.5-125.5-126.5
							c0-0.3,0.4-2929.1,0.4-2929.1h-2362.6v2929.1c0,70-55.8,126.5-125.1,126.5H37791c-69,0-125.2-56.5-125.2-126.5v-7931.2
							c0-70,56.2-126.9,125.2-126.9h1515.6c69.3,0,125.1,57,125.1,126.9v3392.4h2362.6c0,0-4.1-3392.2-4.1-3392.4
							c0-70,56.2-126.9,125.5-126.9h1519.3c69.4,0,124.9,57,125.1,126.9V-6050.2"/>
						<path id="path3028" class="st1" d="M32547.4-7090.9c0,545.8-437.6,986.8-977.4,986.8c-539.3,0-977.2-441-977.2-986.8
							c0-545.2,437.9-987.4,977.2-987.4C32109.8-8078.3,32547.4-7636.1,32547.4-7090.9"/>
						<path id="path3030" class="st1" d="M32439-12308.3c0,203.2,0,3661.1,0,3661.1c0,69.5-56.1,126.3-125.4,126.3h-1510.9
							c-69.3,0-131.3-71.5-131.3-141c0,0,0-4405.4,0-5245.2c0-154.2,96.1-200,220.4-200c0,0,644.9,0,1361.3,0
							c149.3,0,186,73.3,186,202.4C32439-13623.5,32439-12522.1,32439-12308.3"/>
						<path id="path3032" class="st1" d="M49320.3-8532.8h-1504.1c-69,0-125.1-56.9-125.1-126.8v-3888.9
							c0,0-382.1-279.6-924.4-279.6c-542.3,0-686.2,246.1-686.2,777.1c0,531.7,0,3391.4,0,3391.4c0,70-56,126.8-125.1,126.8h-1526.5
							c-68.9,0-125.3-56.9-125.3-126.8c0,0,0-2071,0-3648.2c0-1577.3,879.1-1963.1,2088.4-1963.1c992.1,0,1792,548.1,1792,548.1
							s38.1-288.8,55.3-323.1c17.3-34.2,62.2-68.7,110.7-68.7l971.1,4.3c68.9,0,125.3,57,125.3,126.6l-0.5,5324.1
							C49445.8-8589.7,49389.6-8532.8,49320.3-8532.8"/>
						<path id="path3034" class="st1" d="M52837.8-12823.3c-521.7,15.9-875.5,252.6-875.5,252.6v2511.7c0,0,349.1,214,777.4,252.2
							c541.6,48.5,1063.5-115.1,1063.5-1407.1C53803.2-12576.4,53567.7-12845.3,52837.8-12823.3z M53431.1-8354.7
							c-854.3,0-1435.3-381.1-1435.3-381.1v2685.6c0,70-56,126.5-125.1,126.5h-1520c-69.1,0-125.3-56.5-125.3-126.5v-7931.2
							c0-70,56.2-126.9,125.5-126.9c0.1,0,1054.2,0,1054.6,0c47.5,0,83.4,24.5,110,67.4c26.2,42.6,64,365.7,64,365.7
							s621.5-589,1798.1-589c1381.3,0,2173.4,700.7,2173.4,3145.4C55551.1-8674.1,54286-8354.7,53431.1-8354.7"/>
						<path id="path3036" class="st1" d="M36795.2-8520.2h-1137c0,0-1.7,1501.7-1.7,1502c0,56.8-29.3,85.2-95,85.2h-1549.4
							c-60.2,0-92.6-26.5-92.6-84.4v-1552.2c0,0-776.4-187.4-828.9-202.6c-52.3-15.2-90.8-63.4-90.8-120.9v-975.4
							c0-70.1,56-126.7,125.3-126.7h794.4c0,0,0-1020.2,0-2346.5c0-1742.9,1222.5-1914.1,2047.5-1914.1
							c376.9,0,827.8,121.1,902.3,148.6c45,16.5,71.2,63.2,71.2,113.7l1.3,1073c0,70-59.1,126.6-125.7,126.6
							c-66.2,0-235.7-26.9-410.2-26.9c-558.4,0-747.7,259.7-747.7,595.8c0,335.9-0.1,2229.9-0.1,2229.9h1137
							c69.3,0,125.4,56.6,125.4,126.7v1221.7C36920.6-8576.5,36864.5-8520.2,36795.2-8520.2"/>
					</g>
				</g>
			</g>
		</g>
	</g>
</g>
</svg>
