<?xml version="1.0" encoding="utf-8"?>
<!-- Generator: Adobe Illustrator 23.0.0, SVG Export Plug-In . SVG Version: 6.00 Build 0)  -->
<svg version="1.1" id="Layer_1" xmlns="http://www.w3.org/2000/svg" xmlns:xlink="http://www.w3.org/1999/xlink" x="0px" y="0px"
	 viewBox="0 0 6125 2450" style="enable-background:new 0 0 6125 2450;" xml:space="preserve">
<style type="text/css">
	.st0{fill:#041E34;}
	.st1{fill:#479CD7;}
	.st2{fill:#310304;}
	.st3{fill:#F3961A;}
</style>
<path class="st0" d="M853.1,12.3h1614.6c244.8,0,442.7,197.9,442.7,442.7v1552.1c0,244.8-197.9,442.7-442.7,442.7H853.1
	c-244.8,0-442.7-197.9-442.7-442.7V455C410.4,210.1,608.3,12.3,853.1,12.3z"/>
<g>
	<path class="st1" d="M972.9,1715.7V643.8c0-7.3,3.1-11.5,10.4-11.5c17.7,0,34.4,0,58.3-1c25-1,51-1,79.2-2.1
		c28.1-1,58.3-1,90.6-2.1s63.5-1,94.8-1c85.4,0,156.3,10.4,214.6,32.3c52.1,17.7,100,46.9,139.6,85.4c33.3,33.3,59.4,74,76,118.8
		c15.6,43.8,24,88.5,24,135.4c0,89.6-20.8,163.5-62.5,221.9c-41.7,58.3-100,102.1-167.7,127.1c-70.8,26-149,35.4-234.4,35.4
		c-25,0-41.7,0-52.1-1s-25-1-44.8-1v334.4c1,7.3-4.2,13.5-11.5,14.6h-202C977.1,1729.2,972.9,1725.1,972.9,1715.7L972.9,1715.7z
		 M1200,833.3v350c14.6,1,28.1,2.1,40.6,2.1h55.2c40.6,0,81.3-6.3,119.8-18.8c33.3-9.4,62.5-29.2,85.4-55.2
		c21.9-26,32.3-61.5,32.3-107.3c1-32.3-7.3-64.6-24-92.7c-17.7-27.1-42.7-47.9-72.9-59.4c-38.5-15.6-80.2-21.9-122.9-20.8
		c-27.1,0-51,0-70.8,1C1221.9,831.3,1207.3,832.3,1200,833.3L1200,833.3z M2410.4,1119.8c-31.3-16.7-64.6-28.1-100-35.4
		c-38.5-8.3-77.1-13.5-116.7-13.5c-20.8-1-42.7,2.1-62.5,7.3c-13.5,3.1-25,10.4-32.3,20.8c-5.2,8.3-8.3,18.8-8.3,28.1
		c0,9.4,4.2,18.8,10.4,27.1c9.4,11.5,21.9,20.8,35.4,28.1c24,12.5,49,24,74,34.4c56.3,18.8,110.4,44.8,160.4,76
		c34.4,21.9,62.5,51,82.3,86.5c16.7,33.3,25,69.8,24,107.3c1,49-13.5,97.9-40.6,138.5c-29.2,41.7-69.8,74-116.7,92.7
		c-51,21.9-113.5,33.3-188.5,33.3c-47.9,0-94.8-4.2-141.7-13.5c-36.5-6.3-72.9-17.7-106.3-33.3c-7.3-4.2-12.5-11.5-11.5-19.8V1503
		c0-3.1,1-7.3,4.2-9.4c3.1-2.1,6.3-1,9.4,1c40.6,24,83.3,40.6,129.2,51c39.6,10.4,81.3,15.6,122.9,15.6c39.6,0,67.7-5.2,86.5-14.6
		c16.7-7.3,28.1-25,28.1-43.8c0-14.6-8.3-28.1-25-41.7c-16.7-13.5-51-29.2-102.1-49c-53.1-18.8-102.1-43.8-147.9-75
		c-32.3-22.9-59.4-53.1-79.2-88.5c-16.7-33.3-25-69.8-24-106.3c0-44.8,12.5-87.5,35.4-126c26-41.7,64.6-75,109.4-95.8
		c49-25,110.4-36.5,184.4-36.5c42.7,0,86.5,3.1,129.2,9.4c31.3,4.2,61.5,12.5,89.6,24c4.2,1,8.3,5.2,10.4,9.4
		c1,4.2,2.1,8.3,2.1,12.5v169.8c0,4.2-2.1,8.3-5.2,10.4C2419.8,1121.8,2414.6,1121.8,2410.4,1119.8L2410.4,1119.8z"/>
</g>
<path class="st2" d="M3651.8,12.3h1614.6c244.8,0,442.7,197.9,442.7,442.7v1552.1c0,244.8-197.9,442.7-442.7,442.7H3651.8
	c-244.8,0-442.7-197.9-442.7-442.7V455C3209.1,210.1,3407,12.3,3651.8,12.3z"/>
<g>
	<path class="st3" d="M4417.4,1464.6h-387.5l-79.2,244.8c-2.1,9.4-10.4,15.6-19.8,14.6h-195.8c-11.5,0-14.6-6.3-11.5-18.8
		L4059,739.6c3.1-10.4,6.3-21.9,10.4-34.4c4.2-21.9,6.3-44.8,6.3-67.7c-1-5.2,3.1-10.4,8.3-11.5h269.8c8.3,0,12.5,3.1,13.5,8.3
		l380.3,1073c3.1,11.5,0,16.7-10.4,16.7h-217.7c-7.3,1-14.6-4.2-16.7-11.5L4417.4,1464.6z M4090.3,1253.2h264.6
		c-6.3-21.9-14.6-47.9-24-75c-9.4-28.1-18.8-58.3-28.1-89.6c-10.4-32.3-19.8-63.5-30.2-95.8c-10.4-32.3-19.8-62.5-28.1-92.7
		c-8.3-29.2-15.6-56.3-22.9-81.3h-2.1c-9.4,44.8-20.8,89.6-35.4,134.4c-15.6,50-31.3,102.1-47.9,154.2
		C4121.6,1160.4,4105.9,1209.3,4090.3,1253.2L4090.3,1253.2z M4979.9,808.3c-34.4,1-67.7-12.5-92.7-36.5c-24-26-36.5-60.4-35.4-95.8
		c-1-35.4,12.5-68.8,37.5-92.7s58.3-36.5,92.7-36.5c40.6,0,71.9,12.5,94.8,36.5c22.9,25,35.4,58.3,34.4,92.7
		c1,35.4-11.5,69.8-36.5,95.8C5050.7,796.8,5015.3,810.5,4979.9,808.3L4979.9,808.3z M4863.2,1712.6V910.5
		c0-10.4,4.2-14.6,13.5-14.6H5083c9.4,0,13.5,5.2,13.5,14.6v802.1c0,11.5-4.2,16.7-13.5,16.7h-204.2
		C4868.4,1729.2,4863.2,1722.9,4863.2,1712.6z"/>
</g>
</svg>
