<?xml version="1.0" encoding="utf-8"?>
<!-- Generator: Adobe Illustrator 23.0.0, SVG Export Plug-In . SVG Version: 6.00 Build 0)  -->
<svg version="1.1" id="Layer_1" xmlns="http://www.w3.org/2000/svg" xmlns:xlink="http://www.w3.org/1999/xlink" x="0px" y="0px"
	 viewBox="0 0 1050 420" style="enable-background:new 0 0 1050 420;" xml:space="preserve">
<style type="text/css">
	.st0{fill:#E44F26;}
	.st1{fill:#F1662A;}
	.st2{fill:#EBEBEB;}
	.st3{fill:#010101;}
	.st4{fill:#FFFFFF;}
	.st5{fill:#131313;}
	.st6{fill:#1572B6;}
	.st7{fill:#33A9DC;}
</style>
<g>
	<polygon class="st0" points="201.5,386.2 174.4,82.6 471.8,82.6 444.7,386.1 322.9,419.9 	"/>
	<polygon class="st1" points="323.1,394.1 421.5,366.8 444.7,107.4 323.1,107.4 	"/>
	<polygon class="st2" points="323.1,220 273.8,220 270.4,181.9 323.1,181.9 323.1,144.6 323,144.6 229.7,144.6 230.6,154.6 
		239.8,257.2 323.1,257.2 	"/>
	<polygon class="st2" points="323.1,316.7 323,316.8 281.5,305.6 278.8,275.9 258.7,275.9 241.5,275.9 246.7,334.3 322.9,355.5 
		323.1,355.5 	"/>
	<path class="st3" d="M202.1,0.1H221v18.7h17.3V0.1h18.9v56.6h-18.9v-19H221v19h-18.9V0.1L202.1,0.1z"/>
	<path class="st3" d="M282.1,18.8h-16.7V0.1h52.3v18.8H301v37.8h-18.9L282.1,18.8L282.1,18.8z"/>
	<path class="st3" d="M326,0.1h19.7L357.9,20L370,0.1h19.7v56.6h-18.8V28.6l-13,20.1h-0.3l-13-20.1v28.1H326L326,0.1L326,0.1z"/>
	<path class="st3" d="M399.2,0.1h18.9V38h26.6v18.7h-45.5L399.2,0.1L399.2,0.1z"/>
	<polygon class="st4" points="323,220 323,257.2 368.8,257.2 364.5,305.5 323,316.7 323,355.5 399.3,334.3 399.9,328 408.6,230 
		409.6,220 399.5,220 	"/>
	<polygon class="st4" points="323,144.6 323,167.8 323,181.8 323,181.9 412.8,181.9 412.8,181.9 412.9,181.9 413.7,173.5 
		415.4,154.6 416.3,144.6 	"/>
</g>
<g>
	<path class="st5" d="M811.2,15.6h-24.7l25.7,27.9v13.3h-52.9V41.2H785l-25.7-27.9V0.1h51.9V15.6L811.2,15.6z M748.9,15.6h-24.7
		l25.7,27.9v13.3H697V41.2h25.7L697,13.3V0.1h51.9L748.9,15.6L748.9,15.6z M687.1,16.2h-26.6v24.3h26.6v16.2h-45.6V0.1h45.6V16.2z"
		/>
</g>
<polygon class="st6" points="605.2,386.2 578.2,82.6 875.6,82.6 848.5,386.2 726.7,419.9 "/>
<polygon class="st7" points="726.9,394.1 825.3,366.8 848.5,107.4 726.9,107.4 "/>
<g>
	<polygon class="st4" points="726.9,217.4 776.2,217.4 779.6,179.3 726.9,179.3 726.9,142.1 727,142.1 820.3,142.1 819.4,152 
		810.2,254.7 726.9,254.7 	"/>
	<polygon class="st2" points="727.1,314.1 726.9,314.2 685.5,303 682.8,273.3 662.7,273.3 645.4,273.3 650.7,331.7 726.9,352.9 
		727.1,352.9 	"/>
	<polygon class="st4" points="773,253.1 768.5,303 727,314.2 727,352.9 803.3,331.7 803.9,325.5 810.4,253.1 	"/>
	<polygon class="st2" points="727,142.1 727,165.2 727,179.2 727,179.3 637.2,179.3 637.2,179.3 637.1,179.3 636.3,170.9 634.6,152 
		633.7,142.1 	"/>
	<polygon class="st2" points="726.9,217.4 726.9,240.6 726.9,254.6 726.9,254.7 686.1,254.7 686.1,254.7 685.9,254.7 685.2,246.3 
		683.5,227.4 682.6,217.4 	"/>
</g>
</svg>
